HIERARCHY
ROOT Hips
{
	OFFSET 0.000000 0.000000 0.000000
	CHANNELS 6 Xposition Yposition Zposition Zrotation Yrotation Xrotation 
	JOINT LowerBack
	{
		OFFSET 0.000000 0.000000 0.000000
		CHANNELS 3 Zrotation Yrotation Xrotation
		JOINT Spine
		{
			OFFSET 0.028270 2.035590 -0.193380
			CHANNELS 3 Zrotation Yrotation Xrotation
			JOINT Spine1
			{
				OFFSET 0.056720 2.048850 -0.042750
				CHANNELS 3 Zrotation Yrotation Xrotation
				JOINT Neck
				{
					OFFSET 0.000000 0.000000 0.000000
					CHANNELS 3 Zrotation Yrotation Xrotation
					JOINT Neck1
					{
						OFFSET -0.054170 1.746240 0.172020
						CHANNELS 3 Zrotation Yrotation Xrotation
						JOINT Head
						{
							OFFSET 0.104070 1.761360 -0.123970
							CHANNELS 3 Zrotation Yrotation Xrotation
							End Site
							{
								OFFSET 0.000000 0.000000 0.000000
							}
						}
					}
				}
				JOINT LeftShoulder
				{
					OFFSET 0.000000 0.000000 0.000000
					CHANNELS 3 Zrotation Yrotation Xrotation
					JOINT LeftArm
					{
						OFFSET 3.362410 1.200890 -0.311210
						CHANNELS 3 Zrotation Yrotation Xrotation
						JOINT LeftForeArm
						{
							OFFSET 4.983000 -0.000000 -0.000000
							CHANNELS 3 Zrotation Yrotation Xrotation
							JOINT LeftHand
							{
								OFFSET 3.483560 -0.000000 -0.000000
								CHANNELS 3 Zrotation Yrotation Xrotation
								JOINT LeftFingerBase
								{
									OFFSET 0.000000 0.000000 0.000000
									CHANNELS 3 Zrotation Yrotation Xrotation
									JOINT LeftHandIndex1
									{
										OFFSET 0.715260 -0.000000 -0.000000
										CHANNELS 3 Zrotation Yrotation Xrotation
										End Site
										{
											OFFSET 0.000000 0.000000 0.000000
										}
									}
								}
								JOINT LThumb
								{
									OFFSET 0.000000 0.000000 0.000000
									CHANNELS 3 Zrotation Yrotation Xrotation
									End Site
									{
										OFFSET 0.000000 0.000000 0.000000
									}
								}
							}
						}
					}
				}
				JOINT RightShoulder
				{
					OFFSET 0.000000 0.000000 0.000000
					CHANNELS 3 Zrotation Yrotation Xrotation
					JOINT RightArm
					{
						OFFSET -3.136600 1.374050 -0.404650
						CHANNELS 3 Zrotation Yrotation Xrotation
						JOINT RightForeArm
						{
							OFFSET -5.241900 -0.000000 -0.000000
							CHANNELS 3 Zrotation Yrotation Xrotation
							JOINT RightHand
							{
								OFFSET -3.444170 -0.000000 -0.000000
								CHANNELS 3 Zrotation Yrotation Xrotation
								JOINT RightFingerBase
								{
									OFFSET 0.000000 0.000000 0.000000
									CHANNELS 3 Zrotation Yrotation Xrotation
									JOINT RightHandIndex1
									{
										OFFSET -0.622530 -0.000000 -0.000000
										CHANNELS 3 Zrotation Yrotation Xrotation
										End Site
										{
											OFFSET 0.000000 0.000000 0.000000
										}
									}
								}
								JOINT RThumb
								{
									OFFSET 0.000000 0.000000 0.000000
									CHANNELS 3 Zrotation Yrotation Xrotation
									End Site
									{
										OFFSET 0.000000 0.000000 0.000000
									}
								}
							}
						}
					}
				}
			}
		}
	}
}
}
MOTION
Frames: 12
Frame Time: 0.008333
3.147575 16.446607 -0.016819 54.401246 88.605463 77.042530 -4.379819 1.458658 3.608331 -2.268689 1.661746 -2.421137 -8.159755 1.567361 0.093093 8.883673 5.827432 3.945956 -5.542664 -0.462375 2.625537 0.000000 0.000000 0.000000 -5.763930 -0.611401 2.703736 -52.284155 -10.305400 16.698719 -4.104054 -27.202969 -0.000948 0.304775 0.942681 0.004287 -0.137332 0.011973 0.000000 0.000000 0.000000 0.000000 0.000000 0.000000 0.000000 22.931790 5.530427 -0.858235 70.937797 22.818398 20.656258 1.666262 42.388115 0.000203 0.985887 10.361941 0.093626 -0.022370 -0.211996 0.000000 0.000000 0.000000 0.000000 0.000000 0.000000 0.000000 
3.337146 16.416503 -0.022911 56.734848 88.184639 79.257771 -4.924858 1.492134 3.832386 -2.385111 1.720235 -2.409635 -8.176496 1.620235 -0.004820 9.011432 6.063106 4.093899 -5.561969 -0.463990 2.655914 0.000000 0.000000 0.000000 -5.836205 -1.083625 2.759236 -52.165230 -10.586688 16.079297 -4.162647 -25.985368 -0.001156 0.525925 0.984568 0.006262 -0.136284 0.014957 0.000000 0.000000 0.000000 0.000000 0.000000 0.000000 0.000000 23.167464 5.684783 -0.821006 71.094813 22.666056 19.703036 1.659755 41.493159 -0.000595 0.798278 10.513730 0.077420 -0.022553 -0.211301 0.000000 0.000000 0.000000 0.000000 0.000000 0.000000 0.000000 
3.521185 16.392967 -0.029767 57.461509 87.707428 79.859651 -5.473744 1.536078 4.089663 -2.499113 1.788711 -2.389444 -8.176229 1.683548 -0.100257 9.082714 6.332044 4.279712 -5.574274 -0.465329 2.694634 0.000000 0.000000 0.000000 -5.920849 -1.588613 2.807099 -52.125956 -10.959317 15.325348 -4.218627 -24.601277 -0.001422 0.801861 1.030482 0.008932 -0.134550 0.019064 0.000000 0.000000 0.000000 0.000000 0.000000 0.000000 0.000000 23.311057 5.858883 -0.791479 71.291993 22.538762 18.651924 1.652200 40.483031 -0.001491 0.559869 10.673350 0.055713 -0.022248 -0.210072 0.000000 0.000000 0.000000 0.000000 0.000000 0.000000 0.000000 
3.699995 16.375964 -0.038387 57.065113 87.211694 79.335747 -5.982671 1.590003 4.366521 -2.602077 1.864744 -2.362403 -8.159270 1.754949 -0.191310 9.091763 6.634580 4.505126 -5.579793 -0.466442 2.742632 0.000000 0.000000 0.000000 -6.012296 -2.124522 2.844531 -52.190200 -11.404197 14.397632 -4.267346 -23.059332 -0.001781 1.134958 1.084316 0.012299 -0.131857 0.024390 0.000000 0.000000 0.000000 0.000000 0.000000 0.000000 0.000000 23.355680 6.053257 -0.769331 71.518894 22.433427 17.521519 1.645256 39.369728 -0.002415 0.287216 10.826551 0.030106 -0.021492 -0.208160 0.000000 0.000000 0.000000 0.000000 0.000000 0.000000 0.000000 
3.874055 16.365361 -0.050151 55.765703 86.737352 77.911035 -6.401155 1.650928 4.652249 -2.684267 1.943735 -2.323665 -8.129935 1.831047 -0.252741 9.033467 6.959099 4.743566 -5.579390 -0.467081 2.792780 0.000000 0.000000 0.000000 -6.132561 -2.552355 2.865003 -52.352202 -12.090680 13.397669 -4.311033 -21.288585 -0.002244 1.536465 1.129672 0.016564 -0.128555 0.031237 0.000000 0.000000 0.000000 0.000000 0.000000 0.000000 0.000000 23.299096 6.260609 -0.765701 71.764655 22.372249 16.348677 1.641133 38.168967 -0.003281 -0.000400 10.961500 0.002196 -0.020296 -0.205302 0.000000 0.000000 0.000000 0.000000 0.000000 0.000000 0.000000 
4.044097 16.360828 -0.064963 53.838939 86.286922 75.855557 -6.728987 1.717093 4.936505 -2.746383 2.024277 -2.279511 -8.089186 1.909566 -0.300795 8.918905 7.303327 5.010892 -5.575043 -0.467606 2.850073 0.000000 0.000000 0.000000 -6.245149 -2.972300 2.870177 -52.640331 -12.851342 12.188263 -4.338754 -19.379984 -0.002873 1.997798 1.179277 0.021625 -0.123928 0.039333 0.000000 0.000000 0.000000 0.000000 0.000000 0.000000 0.000000 23.161209 6.477459 -0.769371 72.011848 22.334032 15.153355 1.642483 36.903350 -0.003990 -0.275697 11.058433 -0.025113 -0.018766 -0.201559 0.000000 0.000000 0.000000 0.000000 0.000000 0.000000 0.000000 
4.210898 16.362036 -0.083154 51.402766 85.872625 73.287248 -6.951543 1.784113 5.211833 -2.786373 2.101983 -2.228299 -8.042315 1.986595 -0.323849 8.757734 7.653593 5.289808 -5.568773 -0.467967 2.909995 0.000000 0.000000 0.000000 -6.352943 -3.319281 2.858013 -53.041412 -13.752017 10.819198 -4.348754 -17.327951 -0.003690 2.522641 1.221284 0.027484 -0.118095 0.048630 0.000000 0.000000 0.000000 0.000000 0.000000 0.000000 0.000000 22.961431 6.693084 -0.784005 72.246826 22.325439 13.970222 1.651623 35.598703 -0.004457 -0.514157 11.103241 -0.048923 -0.016974 -0.196845 0.000000 0.000000 0.000000 0.000000 0.000000 0.000000 0.000000 
4.375325 16.368647 -0.104462 48.586931 85.496066 70.335422 -7.070140 1.847693 5.471125 -2.805479 2.172993 -2.171422 -7.994070 2.058169 -0.321543 8.565411 7.999113 5.572720 -5.562625 -0.468234 2.970834 0.000000 0.000000 0.000000 -6.447400 -3.589208 2.829876 -53.541134 -14.772388 9.302155 -4.336770 -15.178838 -0.004734 3.108834 1.250894 0.033939 -0.111013 0.058830 0.000000 0.000000 0.000000 0.000000 0.000000 0.000000 0.000000 22.725525 6.898466 -0.807656 72.455618 22.339748 12.826129 1.670369 34.285096 -0.004628 -0.691998 11.083094 -0.066631 -0.015032 -0.191188 0.000000 0.000000 0.000000 0.000000 0.000000 0.000000 0.000000 
4.538136 16.380303 -0.128249 45.526420 85.154680 67.135647 -7.094528 1.903451 5.708159 -2.806463 2.233452 -2.111881 -7.948434 2.120026 -0.299903 8.360364 8.336269 5.857497 -5.557718 -0.468485 3.032453 0.000000 0.000000 0.000000 -6.517603 -3.804670 2.790087 -54.118856 -15.853632 7.655452 -4.299213 -13.011660 -0.006026 3.748845 1.269142 0.040696 -0.102717 0.069471 0.000000 0.000000 0.000000 0.000000 0.000000 0.000000 0.000000 22.478352 7.091951 -0.836375 72.628027 22.355720 11.730820 1.699194 33.000857 -0.004478 -0.784738 10.985596 -0.075239 -0.013154 -0.184687 0.000000 0.000000 0.000000 0.000000 0.000000 0.000000 0.000000 
4.699963 16.396735 -0.153761 42.342792 84.847568 63.813271 -7.035671 1.946574 5.919551 -2.792480 2.279017 -2.048490 -7.911213 2.168098 -0.250729 8.159244 8.638555 6.122980 -5.556569 -0.468666 3.089278 0.000000 0.000000 0.000000 -6.568792 -3.924154 2.739844 -54.738515 -17.032125 5.999863 -4.238862 -10.869395 -0.007564 4.430174 1.271117 0.047353 -0.093705 0.080142 0.000000 0.000000 0.000000 0.000000 0.000000 0.000000 0.000000 22.249686 7.248527 -0.871844 72.756076 22.390098 10.735985 1.738682 31.765344 -0.004029 -0.791624 10.814883 -0.074846 -0.011291 -0.177403 0.000000 0.000000 0.000000 0.000000 0.000000 0.000000 0.000000 
4.861234 16.417635 -0.179908 39.182902 84.572719 60.518603 -6.911901 1.973259 6.102060 -2.767334 2.306341 -1.985443 -7.883910 2.198421 -0.186069 7.979775 8.906581 6.371275 -5.558891 -0.468828 3.142460 0.000000 0.000000 0.000000 -6.590031 -3.997276 2.685969 -55.379739 -18.212495 4.397897 -4.157920 -8.868088 -0.009316 5.126634 1.272445 0.054112 -0.084361 0.090266 0.000000 0.000000 0.000000 0.000000 0.000000 0.000000 0.000000 22.057420 7.370349 -0.908347 72.836416 22.414339 9.839210 1.787033 30.616913 -0.003333 -0.701590 10.570054 -0.064854 -0.009685 -0.169535 0.000000 0.000000 0.000000 0.000000 0.000000 0.000000 0.000000 
5.022195 16.442781 -0.205600 36.174709 84.331832 57.384506 -6.741162 1.979981 6.255745 -2.734715 2.312334 -1.922972 -7.868611 2.207951 -0.105216 7.835362 9.115571 6.588428 -5.566049 -0.468950 3.188542 0.000000 0.000000 0.000000 -6.580265 -4.024411 2.630855 -56.020795 -19.378987 2.973943 -4.064970 -7.081272 -0.011194 5.801883 1.284334 0.061076 -0.075432 0.099455 0.000000 0.000000 0.000000 0.000000 0.000000 0.000000 0.000000 21.922500 7.432503 -0.944492 72.866076 22.442672 9.088525 1.842869 29.567610 -0.002472 -0.531945 10.268929 -0.047559 -0.008253 -0.161264 0.000000 0.000000 0.000000 0.000000 0.000000 0.000000 0.000000 
